<svg width="425" height="425" viewBox="0 0 425 425" fill="none" xmlns="http://www.w3.org/2000/svg">
<g clip-path="url(#clip0)">
<path d="M352.4 34.019C320 34.019 294.4 60.019 294.4 92.419C294.4 124.819 320.4 150.419 352.4 150.419C384.4 150.419 410.8 124.419 410.8 92.019C410.8 59.619 384.8 34.019 352.4 34.019ZM352.4 137.619C327.2 137.619 306.8 117.219 306.8 92.019C306.8 66.819 327.6 46.819 352.4 46.819C377.6 46.819 398 67.219 398 92.419C398 117.619 377.6 137.619 352.4 137.619Z" fill="white"/>
<path d="M370.8 101.219C370.4 100.019 370.4 99.219 369.6 98.019C369.2 97.219 368.8 96.019 368 95.219C367.2 94.419 366.8 93.619 366 92.819C365.2 92.019 364.4 91.219 363.2 90.819C362.4 90.019 361.2 89.619 360.4 89.219C359.2 88.819 358.4 88.019 357.2 87.619C356 87.219 354.8 86.819 354 86.419C353.6 86.419 352.8 86.019 352.4 85.619C352 85.219 351.2 85.219 350.8 84.819C350.4 84.419 349.6 84.419 349.2 84.019C348.8 83.619 348.4 83.219 348 82.819C347.6 82.419 347.2 82.019 347.2 81.219C346.8 80.819 346.8 80.019 346.8 79.619C346.8 78.819 346.8 78.419 346.8 77.619C346.8 77.219 347.2 76.419 347.2 76.019C347.6 75.619 347.6 74.819 348 74.419C348.4 74.019 348.8 73.619 349.2 73.219C349.6 72.819 350.4 72.419 351.2 72.419C352 72.019 352.4 72.019 353.2 72.019C353.6 72.019 354 72.019 354.4 72.019C354.8 72.019 355.2 72.019 355.6 72.019C356.4 72.019 356.8 72.019 357.6 72.419C358.4 72.419 359.2 72.819 359.6 72.819C360 72.819 360.8 73.219 361.2 73.219C362 73.219 362.4 73.619 362.8 73.619L364.8 74.419L365.2 72.019L366 65.619V64.019L364.4 63.619C364 63.619 363.2 63.219 362.8 63.219C362.4 63.219 362 62.819 361.2 62.819C360.8 62.819 360 62.419 359.2 62.419C358.4 62.419 358 62.019 357.2 62.019H356.8V56.419V54.419H354.8H349.2H347.2V56.419V62.419H346.8C345.6 62.819 344.4 63.219 343.2 64.019C342 64.419 341.2 65.219 340.4 66.019C339.6 66.819 338.8 67.619 338 68.819C337.2 69.619 336.8 70.819 336.4 72.019C336 73.219 335.6 74.419 335.2 75.619C334.8 76.819 334.8 78.419 334.8 79.619C334.8 80.819 334.8 81.619 335.2 82.819C335.6 84.019 335.6 84.819 336.4 86.019C336.8 86.819 337.6 88.019 338 88.819C338.8 89.619 339.2 90.419 340 91.219C340.8 92.019 341.6 92.819 342.8 93.219C343.6 94.019 344.8 94.419 345.6 94.819C346.8 95.219 348 96.019 348.8 96.419C350 96.819 351.2 97.219 352 97.619C352.4 97.619 353.2 98.019 353.6 98.419C354 98.819 354.8 98.819 355.2 99.219C355.6 99.619 356 100.019 356.4 100.019C356.8 100.419 357.2 100.819 357.6 101.219C358 101.619 358 102.019 358.4 102.819C358.4 103.219 358.8 104.019 358.8 104.819C358.8 105.619 358.8 106.019 358.8 106.819C358.8 107.219 358.4 108.019 358 108.419C357.6 108.819 357.2 109.219 356.8 109.619C356.4 110.019 356 110.419 355.2 110.819C354.8 111.219 354 111.219 353.6 111.619C353.2 111.619 352.4 112.019 351.6 112.019C351.2 112.019 350.8 112.019 350 112.019C349.6 112.019 348.8 112.019 348.4 112.019C347.6 112.019 346.8 112.019 346.4 112.019C345.6 112.019 344.8 111.619 344.4 111.619C343.6 111.619 342.8 111.219 342 110.819C341.2 110.419 340.4 110.419 339.6 110.019C339.2 110.019 338.8 109.619 338.4 109.619C338 109.619 337.6 109.219 337.2 109.219L334.8 108.019L334.4 110.819L333.6 118.019V119.219L334.8 119.619C336.4 119.219 337.2 119.619 338.4 120.019C339.2 120.419 340.4 120.819 341.2 120.819C342 121.219 343.2 121.219 344.4 121.619C345.6 122.019 346.4 122.019 347.6 122.019H348.4V128.019V130.019H350.4H356H358V128.019V121.619H358.4C359.6 121.219 360.8 120.819 362 120.019C363.2 119.619 364 118.819 365.2 118.019C366 117.219 366.8 116.419 367.6 115.219C368.4 114.419 368.8 113.219 369.6 112.019C370 110.819 370.4 109.619 370.8 108.419C371.2 107.219 371.2 106.019 371.2 104.419C371.2 103.219 371.2 102.419 370.8 101.219Z" fill="white"/>
<path d="M324.4 158.019C322.4 155.219 318 154.819 315.2 156.819L250.4 208.419L166.8 173.619C164.8 172.819 162.4 173.219 160.8 174.419L71.2 238.419C68.4 240.419 67.6 244.419 69.6 247.219C70.8 249.219 72.8 250.019 74.8 250.019C76 250.019 77.2 249.619 78.4 248.819L165.2 186.819L249.2 221.619C251.2 222.419 254 222.019 255.6 220.819L323.2 167.219C326 165.219 326.4 160.819 324.4 158.019Z" fill="white"/>
<path d="M418 377.219H388.4V192.019C388.4 188.419 385.6 185.619 382 185.619H323.2C319.6 185.619 316.8 188.419 316.8 192.019V377.219H295.2V256.019C295.2 252.419 292.4 249.619 288.8 249.619H229.6C226 249.619 223.2 252.419 223.2 256.019V377.219H201.6V246.419C201.6 242.819 198.8 240.019 195.2 240.019H136.4C132.8 240.019 130 242.819 130 246.419V377.219H108.4V284.019C108.4 280.419 105.6 277.619 102 277.619H42.8C39.2 277.619 36.4 280.419 36.4 284.019V377.219H6.4C2.8 377.219 0 380.019 0 383.619C0 387.219 2.8 390.019 6.4 390.019H42.4H101.2H136.4H195.2H229.6H288.4H322.8H381.6H417.6C421.2 390.019 424 387.219 424 383.619C424.4 380.019 421.6 377.219 418 377.219ZM95.2 377.219H49.2V290.419H95.2V377.219ZM188.8 377.219H142.8V252.819H188.8V377.219ZM282 377.219H236V262.419H282V377.219ZM375.6 377.219H329.6V198.419H375.6V377.219Z" fill="white"/>
</g>
<defs>
<clipPath id="clip0">
<rect width="424.038" height="424.038" fill="white"/>
</clipPath>
</defs>
</svg>
