<svg width="512" height="512" viewBox="0 0 512 512" fill="none" xmlns="http://www.w3.org/2000/svg">
<g clip-path="url(#clip0)">
<path d="M256 207C303.972 207 343 167.972 343 120C343 72.028 303.972 33 256 33C208.028 33 169 72.028 169 120C169 167.972 208.028 207 256 207ZM256 63C287.43 63 313 88.57 313 120C313 151.43 287.43 177 256 177C224.57 177 199 151.43 199 120C199 88.57 224.57 63 256 63Z" fill="white"/>
<path d="M432 207C462.327 207 487 182.327 487 152C487 121.673 462.327 97 432 97C401.673 97 377 121.673 377 152C377 182.327 401.673 207 432 207ZM432 127C445.785 127 457 138.215 457 152C457 165.785 445.785 177 432 177C418.215 177 407 165.785 407 152C407 138.215 418.215 127 432 127Z" fill="white"/>
<path d="M444.1 241H420.9C393.561 241 369.961 257.152 359.207 280.352C337.066 256.182 305.263 241 269.979 241H242.022C206.738 241 174.935 256.182 152.794 280.352C142.039 257.152 118.439 241 91.1 241H67.9C30.46 241 0 271.276 0 308.49V417.7C0 433.856 13.194 447 29.412 447H121.139C122.677 464.9 137.729 479 156.022 479H355.979C374.271 479 389.323 464.9 390.862 447H481.541C498.337 447 512.001 433.39 512.001 416.66V308.49C512 271.276 481.54 241 444.1 241V241ZM30 308.49C30 287.818 47.002 271 67.9 271H91.1C111.998 271 129 287.818 129 308.49V318.761C118.913 345.025 121 360.765 121 417H30V308.49ZM361 443.979C361 446.748 358.748 449 355.979 449H156.021C153.252 449 151 446.747 151 443.979V362.022C151 311.832 191.832 271 242.021 271H269.978C320.168 271 361 311.832 361 362.021V443.979ZM482 416.66C482 417.177 487.592 417 391 417C391 360.349 393.071 344.982 383 318.761V308.49C383 287.818 400.002 271 420.9 271H444.1C464.998 271 482 287.818 482 308.49V416.66Z" fill="white"/>
<path d="M80 207C110.327 207 135 182.327 135 152C135 121.673 110.327 97 80 97C49.673 97 25 121.673 25 152C25 182.327 49.673 207 80 207ZM80 127C93.785 127 105 138.215 105 152C105 165.785 93.785 177 80 177C66.215 177 55 165.785 55 152C55 138.215 66.215 127 80 127Z" fill="white"/>
</g>
<defs>
<clipPath id="clip0">
<rect width="512" height="512" fill="white"/>
</clipPath>
</defs>
</svg>
