<svg width="512" height="512" viewBox="0 0 512 512" fill="none" xmlns="http://www.w3.org/2000/svg">
<g clip-path="url(#clip0)">
<path d="M407.672 280.596C385.981 265.009 362.366 253.012 337.49 244.818C370.565 219.986 392 180.449 392 136C392 61.01 330.991 0 256 0C181.009 0 120 61.01 120 136C120 180.504 141.488 220.084 174.633 244.911C144.265 254.909 115.77 270.466 90.83 290.98C45.098 328.597 13.301 381.066 1.298 438.723C-2.464 456.789 2.043 475.345 13.661 489.631C25.222 503.847 42.365 512 60.693 512H267C278.046 512 287 503.046 287 492C287 480.954 278.046 472 267 472H60.693C52.155 472 47.004 467.234 44.694 464.394C40.705 459.489 39.161 453.104 40.458 446.875C61.214 347.18 149.149 274.354 250.698 271.898C252.457 271.966 254.224 272 256 272C257.788 272 259.569 271.965 261.341 271.896C305.807 272.948 348.224 287.132 384.329 313.078C393.298 319.524 405.796 317.477 412.242 308.509C418.688 299.539 416.642 287.042 407.672 280.596ZM260.869 231.878C259.248 231.848 257.625 231.833 256 231.833C254.386 231.833 252.772 231.849 251.16 231.879C200.465 229.35 160 187.312 160 136C160 83.065 203.065 40 256 40C308.935 40 352 83.065 352 136C352 187.302 311.55 229.334 260.869 231.878Z" fill="white"/>
<path d="M455.285 427L506.142 376.143C513.953 368.332 513.953 355.668 506.142 347.858C498.331 340.047 485.668 340.047 477.858 347.858L427 398.715L376.142 347.857C368.331 340.046 355.668 340.046 347.858 347.857C340.048 355.668 340.047 368.332 347.858 376.142L398.715 427L347.858 477.857C340.047 485.668 340.047 498.332 347.858 506.142C351.763 510.048 356.881 512 362 512C367.119 512 372.237 510.048 376.142 506.143L427 455.285L477.858 506.143C481.763 510.048 486.881 512 492 512C497.119 512 502.237 510.048 506.142 506.143C513.953 498.332 513.953 485.668 506.142 477.858L455.285 427Z" fill="white"/>
</g>
<defs>
<clipPath id="clip0">
<rect width="512" height="512" fill="white"/>
</clipPath>
</defs>
</svg>
