<svg width="512" height="512" viewBox="0 0 512 512" fill="none" xmlns="http://www.w3.org/2000/svg">
<path d="M451 30H298.43C292.238 12.5391 275.555 0 256 0C236.445 0 219.762 12.5391 213.57 30H61V512H451V30ZM181 60H241V45C241 36.7305 247.73 30 256 30C264.27 30 271 36.7305 271 45V60H331V90H181V60ZM421 482H91V60H151V120H361V60H421V482Z" fill="white"/>
<path d="M333.574 160.785L263.723 230.641L145.832 348.531L114.012 443.988L209.473 412.168L397.215 224.426L333.574 160.785ZM193.266 385.949L161.445 396.555L172.051 364.734L284.934 251.852L306.148 273.066L193.266 385.949ZM310.391 234.883L306.148 230.641L333.574 203.211L354.785 224.426L327.359 251.852L310.391 234.883Z" fill="white"/>
</svg>
